<svg fill="none" height="30" viewBox="-1.07 -1.07 30 30" width="30" xmlns="http://www.w3.org/2000/svg"><g ><path d="m2.985 3.98a1.99 1.99 0 0 0 -1.99 1.99v18.905a1.99 1.99 0 0 0 1.99 1.99h21.89a1.99 1.99 0 0 0 1.99-1.99v-18.905a1.99 1.99 0 0 0 -1.99-1.99z" fill="#d7e0ff"/><g stroke="#014099" stroke-linecap="round" stroke-linejoin="round"><path d="m2.985 3.98a1.99 1.99 0 0 0 -1.99 1.99v18.905a1.99 1.99 0 0 0 1.99 1.99h21.89a1.99 1.99 0 0 0 1.99-1.99v-18.905a1.99 1.99 0 0 0 -1.99-1.99h-3.98"/><path d="m6.965.995v5.97"/><path d="m20.895.995v5.97"/><path d="m6.965 3.98h9.95"/><path d="m8.79381 16.36576h10.27039"/><path d="m15.20758 20.22636 3.8606-3.8606-3.8606-3.8606"/></g></g></svg>