<svg enable-background="new 0 0 30 30" viewBox="0 0 30 30" xmlns="http://www.w3.org/2000/svg"><path d="m4.1 5c-1.1 0-2 .9-2 2v18.9c0 1.1.9 2 2 2h21.9c1.1 0 2-.9 2-2v-18.9c0-1.1-.9-2-2-2-.1 0-21.9 0-21.9 0z" fill="#d7e0ff"/><g fill="none" stroke="#014099" stroke-linecap="round" stroke-linejoin="round"><path d="m4.6 5c-1.1 0-2 .9-2 2v18.9c0 1.1.9 2 2 2h21.9c1.1 0 2-.9 2-2v-18.9c0-1.1-.9-2-2-2h-4"/><path d="m8 2.1v6"/><path d="m22 2.1v6"/><path d="m8 5h10"/><path d="m20.1 17.4h-10.2"/><path d="m13.7 13.6-3.9 3.9 3.9 3.9"/></g></svg>