<svg fill="none" height="30" viewBox="-.75 -.75 30 30" width="30" xmlns="http://www.w3.org/2000/svg"><g stroke="#000" stroke-width="1.5"><path d="m10.6875 14.25a3.5625 3.5625 0 1 0 7.125 0 3.5625 3.5625 0 1 0 -7.125 0"/><path d="m17.21875 2.375h-5.9375v2.847625a9.4905 9.4905 0 0 0 -3.3618125 1.9439375l-2.47-1.425-2.96875 5.141875 2.467625 1.425a9.540375 9.540375 0 0 0 0 3.883125l-2.4664375 1.425 2.96875 5.141875 2.4688125-1.425a9.4905 9.4905 0 0 0 3.360625 1.9439375v2.847625h5.9375v-2.847625a9.4905 9.4905 0 0 0 3.363-1.9439375l2.47 1.425 2.96875-5.141875-2.467625-1.425a9.5463125 9.5463125 0 0 0 0-3.883125l2.4664375-1.425-2.96875-5.141875-2.4688125 1.425a9.4905 9.4905 0 0 0 -3.3618125-1.9439375z"/></g></svg>