<svg fill="none" height="48" viewBox="0 0 48 48" width="48" xmlns="http://www.w3.org/2000/svg"><path d="m33.896 36.306h-12.229a179.15 179.15 0 0 0 -2.02 7.006c-.18.67-.691 1.212-1.369 1.366a12.18 12.18 0 0 1 -2.725.322c-2.491 0-5.553-.686-5.553-3.648 0 0 6.183-20.638 10.6-31.602.324-.803.901-1.49 1.707-1.81 1.748-.69 3.807-.94 5.6-.94 2.619 0 6.728.433 7.736 3.283 0 0 6.344 19.37 9.748 30.87.385 1.3.086 2.793-1.176 3.287-1.095.429-2.357.56-3.456.56-2.868 0-4.653-.994-5.366-3.77zm-5.867-20.794a.254.254 0 0 0 -.241.176c-1.422 4.426-3.13 8.755-4.499 13.2h8.922c-1.224-4.422-2.644-8.79-3.94-13.194a.253.253 0 0 0 -.242-.182z" fill="#014099"/><path d="m26.396 31.306h-12.229a179.15 179.15 0 0 0 -2.02 7.006c-.18.67-.691 1.212-1.369 1.366a12.18 12.18 0 0 1 -2.725.322c-2.491 0-5.553-.686-5.553-3.648 0 0 6.183-20.638 10.6-31.602.324-.803.901-1.49 1.707-1.81 1.748-.69 3.807-.94 5.6-.94 2.619 0 6.728.433 7.736 3.283 0 0 6.344 19.37 9.748 30.87.385 1.3.086 2.793-1.176 3.287-1.095.429-2.357.56-3.456.56-2.868 0-4.653-.994-5.366-3.77zm-5.867-20.794a.254.254 0 0 0 -.241.176c-1.422 4.426-3.13 8.755-4.499 13.2h8.922c-1.224-4.422-2.644-8.79-3.94-13.194a.253.253 0 0 0 -.242-.182z" fill="#8fbffa"/></svg>