<svg fill="none" height="30" viewBox="-.5 -.5 30 30" width="30" xmlns="http://www.w3.org/2000/svg"><path d="m2.50021429 25.95707143 7.00142857-1.75035714h13.52642857a1.75035714 1.75035714 0 0 0 1.75035714-1.75035714v-17.66307144a1.75035714 1.75035714 0 0 0 -1.75035714-1.75035714h-17.02714286a1.75035714 1.75035714 0 0 0 -1.75035714 1.75035714v15.91271429z" fill="#d7e0ff"/><g stroke="#014099" stroke-linecap="round" stroke-linejoin="round"><path d="m4.25057143 14.30528571v-9.512a1.75035714 1.75035714 0 0 1 1.75035714-1.75035714h17.02714286a1.75035714 1.75035714 0 0 1 1.75035714 1.75035714v1.09785714m-20.52785714 12.81385715v1.99892857l-1.75035714 5.25107143 7.00142857-1.75035714h13.52642857a1.75035714 1.75035714 0 0 0 1.75035714-1.75035714v-12.35607143"/><path d="m1.34642857 11.62485714 2.87514286 2.87514286 2.87514286-2.87514286"/><path d="m21.90328571 12.94228571 2.87514286-2.87514286 2.87514286 2.87514286"/></g></svg>