<svg fill="none" height="30" viewBox="-.5 -.5 30 30" width="30" xmlns="http://www.w3.org/2000/svg"><path d="m18.64285714 5.17857143h-12.42857143a2.07142857 2.07142857 0 0 0 -2.07142857 2.07142857v18.64285714a2.07142857 2.07142857 0 0 0 2.07142857 2.07142857h12.42857143a2.07142857 2.07142857 0 0 0 2.07142857-2.07142857v-18.64285714a2.07142857 2.07142857 0 0 0 -2.07142857-2.07142857z" fill="#d7e0ff"/><g stroke="#014099" stroke-linecap="round" stroke-linejoin="round"><path d="m18.64285714 5.17857143h-12.42857143a2.07142857 2.07142857 0 0 0 -2.07142857 2.07142857v18.64285714a2.07142857 2.07142857 0 0 0 2.07142857 2.07142857h12.42857143a2.07142857 2.07142857 0 0 0 2.07142857-2.07142857v-18.64285714a2.07142857 2.07142857 0 0 0 -2.07142857-2.07142857z"/><path d="m8.28571429 10.35714286h8.28571429"/><path d="m8.28571429 15.53571429h8.28571429"/><path d="m8.28571429 20.71428571h4.14285714"/><path d="m9.32142857 1.03571429h13.46428572a2.07142857 2.07142857 0 0 1 2.07142857 2.07142857v19.67857143"/></g></svg>