<svg fill="none" height="48" viewBox="0 0 48 48" width="48" xmlns="http://www.w3.org/2000/svg"><path clip-rule="evenodd" d="m2.929 22.98a2 2 0 0 0 2.263-1.697c1.317-9.206 9.237-16.283 18.808-16.283 9.57 0 17.49 7.077 18.807 16.283a2 2 0 1 0 3.96-.566c-1.595-11.148-11.179-19.717-22.768-19.717-11.587 0-21.171 8.569-22.766 19.717a2 2 0 0 0 1.697 2.263z" fill="#8fbffa" fill-rule="evenodd"/><path clip-rule="evenodd" d="m2.929 25.02a2 2 0 0 1 2.263 1.697c.216 1.511.61 2.964 1.16 4.337a2 2 0 0 1 -3.714 1.486 22.855 22.855 0 0 1 -1.406-5.257 2 2 0 0 1 1.698-2.263zm42.141 0a2 2 0 0 1 1.697 2.264 22.857 22.857 0 0 1 -1.406 5.256 2 2 0 0 1 -3.713-1.486c.55-1.373.943-2.826 1.159-4.337a2 2 0 0 1 2.263-1.697zm-38.828 10.372a2 2 0 0 1 2.809.337 19.13 19.13 0 0 0 3.197 3.202 2 2 0 1 1 -2.477 3.141 23.125 23.125 0 0 1 -3.865-3.871 2 2 0 0 1 .336-2.809zm35.515 0a2 2 0 0 1 .337 2.809 23.127 23.127 0 0 1 -3.895 3.894 2 2 0 1 1 -2.471-3.145 19.13 19.13 0 0 0 3.22-3.22 2 2 0 0 1 2.809-.338zm-27.442 7.354a2 2 0 0 1 2.602-1.11c1.382.556 2.844.954 4.366 1.172a2 2 0 1 1 -.567 3.96 22.851 22.851 0 0 1 -5.291-1.42 2 2 0 0 1 -1.11-2.602zm19.34.016a2 2 0 0 1 -1.114 2.6 22.85 22.85 0 0 1 -5.258 1.405 2 2 0 1 1 -.567-3.96 18.853 18.853 0 0 0 4.338-1.16 2 2 0 0 1 2.6 1.115z" fill="#8fbffa" fill-rule="evenodd"/><path d="m24.293 10.074c1.987-1.748 4.953-.176 4.774 2.393a185.993 185.993 0 0 1 -.705 7.872c2.333.307 4.273.64 5.739.924 2.224.43 3.048 3.041 1.56 4.698-2.524 2.81-7.048 7.65-11.954 11.966-1.988 1.748-4.953.176-4.774-2.394.216-3.116.465-5.736.705-7.871a96.984 96.984 0 0 1 -5.74-.924c-2.224-.43-3.047-3.041-1.559-4.699 2.523-2.809 7.048-7.65 11.954-11.965z" fill="#014099"/></svg>