<svg fill="none" height="48" viewBox="0 0 48 48" width="48" xmlns="http://www.w3.org/2000/svg"><path d="m24 7c-9.389 0-17 7.611-17 17s7.611 17 17 17 17-7.611 17-17-7.611-17-17-17z" fill="#8fbffa"/><g fill="#014099"><path d="m13.086 37.035 8.974-8.974a1.5 1.5 0 0 0 -2.12-2.122l-8.975 8.975a17.106 17.106 0 0 0 2.121 2.12z"/><path clip-rule="evenodd" d="m47.5 24a2 2 0 0 1 -2 2h-1a2 2 0 1 1 0-4h1a2 2 0 0 1 2 2z" fill-rule="evenodd"/><path clip-rule="evenodd" d="m5.5 24a2 2 0 0 1 -2 2h-1a2 2 0 1 1 0-4h1a2 2 0 0 1 2 2z" fill-rule="evenodd"/><path clip-rule="evenodd" d="m40.617 7.383a2 2 0 0 1 0 2.828l-.707.707a2 2 0 0 1 -2.828-2.828l.707-.707a2 2 0 0 1 2.828 0z" fill-rule="evenodd"/><path clip-rule="evenodd" d="m10.918 37.081a2 2 0 0 1 0 2.829l-.707.707a2 2 0 1 1 -2.828-2.829l.707-.707a2 2 0 0 1 2.828 0z" fill-rule="evenodd"/><path clip-rule="evenodd" d="m7.383 7.383a2 2 0 0 0 0 2.828l.707.707a2 2 0 0 0 2.828-2.828l-.707-.707a2 2 0 0 0 -2.828 0z" fill-rule="evenodd"/><path clip-rule="evenodd" d="m37.082 37.082a2 2 0 0 0 0 2.829l.707.707a2 2 0 1 0 2.828-2.829l-.707-.707a2 2 0 0 0 -2.828 0z" fill-rule="evenodd"/><path clip-rule="evenodd" d="m24 5.5a2 2 0 0 1 -2-2v-1a2 2 0 1 1 4 0v1a2 2 0 0 1 -2 2z" fill-rule="evenodd"/></g></svg>