<svg fill="none" height="48" viewBox="0 0 48 48" width="48" xmlns="http://www.w3.org/2000/svg"><path d="m31.805 40.915a9.55 9.55 0 0 1 -7.929-4.21l-12.476-20.561a2.513 2.513 0 0 0 -2.087-1.108h-5.211c-1 0-1.944-.505-2.236-1.461a8.638 8.638 0 0 1 -.366-2.52c0-1.018.168-1.87.366-2.52.292-.956 1.236-1.461 2.236-1.461h5.211a9.55 9.55 0 0 1 7.93 4.21l12.476 20.56a2.513 2.513 0 0 0 2.086 1.107s1.524 0 3.661-.126c.045-1.435.11-2.531.178-3.36.1-1.229 1.282-1.775 2.29-1.063.984.696 2.356 1.736 4.161 3.253 1.894 1.592 3.072 2.834 3.799 3.725.835 1.025.835 2.372 0 3.397-.727.89-1.906 2.132-3.799 3.724-1.805 1.518-3.177 2.558-4.161 3.254-1.008.712-2.19.166-2.29-1.063a69.026 69.026 0 0 1 -.187-3.652c-2.132-.126-3.652-.126-3.652-.126z" fill="#014099"/><path d="m37.934 2.239c-1.008-.712-2.19-.167-2.29 1.063a69.04 69.04 0 0 0 -.187 3.648c-2.131.126-3.651.126-3.651.126a9.55 9.55 0 0 0 -7.93 4.21l-12.476 20.56a2.513 2.513 0 0 1 -2.087 1.108h-5.211c-1 0-1.944.505-2.236 1.46a8.639 8.639 0 0 0 -.366 2.52c0 1.019.168 1.87.366 2.52.292.956 1.236 1.462 2.236 1.462h5.211c3.186 0 6.162-2.078 7.93-4.708l12.476-20.062a2.513 2.513 0 0 1 2.087-1.108s1.524 0 3.66.127a67.05 67.05 0 0 0 .178 3.363c.1 1.23 1.282 1.775 2.29 1.063.984-.696 2.356-1.735 4.161-3.253 1.894-1.592 3.072-2.833 3.799-3.724.835-1.025.835-2.372 0-3.397-.727-.891-1.906-2.133-3.799-3.725-1.805-1.518-3.177-2.558-4.161-3.253z" fill="#8fbffa"/></svg>